<svg width="20" height="20" viewBox="0 0 20 20" fill="none" xmlns="http://www.w3.org/2000/svg">
<g opacity="0.9">
<path d="M10.8335 2.5C11.7122 2.5 12.432 3.1799 12.4956 4.04228L12.5002 4.16667V17.5H7.5002V4.16667C7.5002 3.28803 8.1801 2.5682 9.04248 2.50457L9.16687 2.5H10.8335ZM16.6669 6.66667C17.5874 6.66667 18.3335 7.41286 18.3335 8.33333V15.8333C18.3335 16.7538 17.5874 17.5 16.6669 17.5H14.1669V6.66667H16.6669ZM5.83354 9.16667V17.5H3.33354C2.41306 17.5 1.66687 16.7538 1.66687 15.8333V10.8333C1.66687 9.91283 2.41306 9.16667 3.33354 9.16667H5.83354Z" fill="white"/>
</g>
</svg>
