<svg width="20" height="20" viewBox="0 0 20 20" fill="none" xmlns="http://www.w3.org/2000/svg">
<path d="M11.6667 2.5C12.5872 2.5 13.3333 3.24619 13.3333 4.16667V6.66667H16.6667C17.5872 6.66667 18.3333 7.41286 18.3333 8.33333V15.8333C18.3333 16.7538 17.5872 17.5 16.6667 17.5H3.33334C2.41286 17.5 1.66667 16.7538 1.66667 15.8333V10.8333C1.66667 9.91283 2.41286 9.16667 3.33334 9.16667H6.66667V4.16667C6.66667 3.24619 7.41286 2.5 8.33334 2.5H11.6667ZM11.6667 4.16667H8.33334V15.8333H11.6667V4.16667ZM16.6667 8.33333H13.3333V15.8333H16.6667V8.33333ZM6.66667 10.8333H3.33334V15.8333H6.66667V10.8333Z" fill="white"/>
</svg>
