<svg width="20" height="20" viewBox="0 0 20 20" fill="none" xmlns="http://www.w3.org/2000/svg">
<path d="M5.83333 2.49999V3.33332C5.83333 4.2538 6.57952 4.99999 7.49999 4.99999H12.5C13.4205 4.99999 14.1667 4.2538 14.1667 3.33332V2.49999H15C15.9205 2.49999 16.6667 3.24618 16.6667 4.16666V13.3333C16.6667 16.0947 14.4281 18.3333 11.6667 18.3333H4.99999C4.07952 18.3333 3.33333 17.5872 3.33333 16.6667V4.16666C3.33333 3.24618 4.07952 2.49999 4.99999 2.49999H5.83333ZM9.99999 11.6667H7.49999C7.03976 11.6667 6.66666 12.0397 6.66666 12.5C6.66666 12.9602 7.03976 13.3333 7.49999 13.3333H9.99999C10.4602 13.3333 10.8333 12.9602 10.8333 12.5C10.8333 12.0397 10.4602 11.6667 9.99999 11.6667ZM12.5 8.33332H7.49999C7.03976 8.33332 6.66666 8.70641 6.66666 9.16666C6.66666 9.59403 6.98837 9.94625 7.40281 9.99438L7.49999 9.99999H12.5C12.9602 9.99999 13.3333 9.62691 13.3333 9.16666C13.3333 8.70641 12.9602 8.33332 12.5 8.33332ZM11.6667 1.66666C12.1269 1.66666 12.5 2.03976 12.5 2.49999C12.5 2.92735 12.1783 3.27958 11.7638 3.32772L11.6667 3.33332H8.33333C7.8731 3.33332 7.49999 2.96022 7.49999 2.49999C7.49999 2.07263 7.8217 1.7204 8.23614 1.67226L8.33333 1.66666H11.6667Z" fill="white" fill-opacity="0.5"/>
</svg>
