<svg width="20" height="20" viewBox="0 0 20 20" fill="none" xmlns="http://www.w3.org/2000/svg">
<path d="M12.5 1.66666C13.0695 1.66666 13.5722 1.95224 13.8728 2.388L13.9437 2.49999H15C15.8787 2.49999 16.5985 3.17989 16.6621 4.04227L16.6667 4.16666V14.1667C16.6667 16.4073 14.8981 18.2348 12.6807 18.3295L12.5 18.3333H4.99999C4.12136 18.3333 3.40152 17.6534 3.3379 16.791L3.33333 16.6667V4.16666C3.33333 3.28802 4.01323 2.56819 4.87561 2.50456L4.99999 2.49999H6.05629C6.3223 2.04014 6.80171 1.71919 7.3591 1.67253L7.49999 1.66666H12.5ZM5.83333 4.16666H4.99999V16.6667H12.5C13.8807 16.6667 15 15.5474 15 14.1667V4.16666H14.1667C14.1667 5.08713 13.4205 5.83332 12.5 5.83332H7.49999C6.57952 5.83332 5.83333 5.08713 5.83333 4.16666ZM9.99999 11.6667C10.4602 11.6667 10.8333 12.0397 10.8333 12.5C10.8333 12.9274 10.5116 13.2796 10.0972 13.3277L9.99999 13.3333H7.49999C7.03976 13.3333 6.66666 12.9602 6.66666 12.5C6.66666 12.0726 6.98837 11.7204 7.40281 11.6723L7.49999 11.6667H9.99999ZM12.5 8.33332C12.9602 8.33332 13.3333 8.70641 13.3333 9.16666C13.3333 9.62691 12.9602 9.99999 12.5 9.99999H7.49999C7.03976 9.99999 6.66666 9.62691 6.66666 9.16666C6.66666 8.70641 7.03976 8.33332 7.49999 8.33332H12.5ZM12.5 3.33332H7.49999V4.16666H12.5V3.33332Z" fill="#8491A5"/>
</svg>
