<svg width="20" height="20" viewBox="0 0 20 20" fill="none" xmlns="http://www.w3.org/2000/svg">
<path d="M8.97684 2.24012C9.54106 1.80127 10.317 1.77384 10.9077 2.15783L11.0233 2.24012L18.0098 7.67404C18.6112 8.14185 18.3182 9.08386 17.5944 9.16155L17.4976 9.16667H16.6668V15.8333C16.6668 16.712 15.9868 17.4318 15.1245 17.4954L15.0001 17.5H5.00005C4.12141 17.5 3.40158 16.8201 3.33795 15.9577L3.33338 15.8333V9.16667H2.50248C1.74134 9.16667 1.3929 8.24368 1.917 7.73758L1.99035 7.67404L8.97684 2.24012ZM10.0001 3.55571L4.68789 7.68739C4.87833 7.8417 5.00005 8.07748 5.00005 8.34167V15.8333H7.50005V11.6667C7.50005 10.2859 8.61934 9.16667 10.0001 9.16667C11.3808 9.16667 12.5001 10.2859 12.5001 11.6667V15.8333H15.0001V8.34167C15.0001 8.07746 15.1218 7.84169 15.3122 7.68739L10.0001 3.55571ZM10.0001 10.8333C9.53984 10.8333 9.16676 11.2064 9.16676 11.6667V15.8333H10.8334V11.6667C10.8334 11.2064 10.4603 10.8333 10.0001 10.8333Z" fill="#8491A5"/>
</svg>
