<svg width="20" height="20" viewBox="0 0 20 20" fill="none" xmlns="http://www.w3.org/2000/svg">
<path fill-rule="evenodd" clip-rule="evenodd" d="M2.5 5C2.5 3.61929 3.61929 2.5 5 2.5H15C16.3807 2.5 17.5 3.61929 17.5 5V15C17.5 16.3807 16.3807 17.5 15 17.5H5C3.61929 17.5 2.5 16.3807 2.5 15V5ZM11.6667 11.6667C11.6667 11.2064 12.0398 10.8333 12.5 10.8333H15.8333V5C15.8333 4.53977 15.4602 4.16667 15 4.16667H5C4.53977 4.16667 4.16667 4.53977 4.16667 5V10.8333H7.5C7.96023 10.8333 8.33333 11.2064 8.33333 11.6667C8.33333 12.5872 9.0795 13.3333 10 13.3333C10.9205 13.3333 11.6667 12.5872 11.6667 11.6667Z" fill="white" fill-opacity="0.5"/>
</svg>
