<svg width="20" height="20" viewBox="0 0 20 20" fill="none" xmlns="http://www.w3.org/2000/svg">
<path fill-rule="evenodd" clip-rule="evenodd" d="M2.5 5C2.5 3.61929 3.61929 2.5 5 2.5H15C16.3807 2.5 17.5 3.61929 17.5 5V10.8333V15C17.5 16.3807 16.3807 17.5 15 17.5H5C3.61929 17.5 2.5 16.3807 2.5 15V10.8333V5ZM13.2283 11.6667H15.8333V15C15.8333 15.4602 15.4602 15.8333 15 15.8333H5C4.53977 15.8333 4.16667 15.4602 4.16667 15V11.6667H6.77168C7.14172 13.1043 8.44683 14.1667 10 14.1667C11.5532 14.1667 12.8582 13.1043 13.2283 11.6667ZM11.6667 10.8333C11.6667 10.3731 12.0398 10 12.5 10H15.8333V5C15.8333 4.53977 15.4602 4.16667 15 4.16667H5C4.53977 4.16667 4.16667 4.53977 4.16667 5V10H7.5C7.96023 10 8.33333 10.3731 8.33333 10.8333C8.33333 11.7538 9.0795 12.5 10 12.5C10.9205 12.5 11.6667 11.7538 11.6667 10.8333Z" fill="#8491A5"/>
</svg>
