<svg width="20" height="20" viewBox="0 0 20 20" fill="none" xmlns="http://www.w3.org/2000/svg">
<path fill-rule="evenodd" clip-rule="evenodd" d="M1.66687 5C1.66687 3.61929 2.78616 2.5 4.16687 2.5H15.8335C17.2143 2.5 18.3335 3.61929 18.3335 5V13.3333C18.3335 14.7141 17.2143 15.8333 15.8335 15.8333H6.11131L3.33354 17.9167C2.64684 18.4317 1.66687 17.9417 1.66687 17.0833V5ZM5.83354 7.5C5.83354 7.03977 6.20664 6.66667 6.66687 6.66667H13.3335C13.7938 6.66667 14.1669 7.03977 14.1669 7.5C14.1669 7.96023 13.7938 8.33333 13.3335 8.33333H6.66687C6.20664 8.33333 5.83354 7.96023 5.83354 7.5ZM6.66687 10C6.20664 10 5.83354 10.3731 5.83354 10.8333C5.83354 11.2936 6.20664 11.6667 6.66687 11.6667H9.16687C9.62712 11.6667 10.0002 11.2936 10.0002 10.8333C10.0002 10.3731 9.62712 10 9.16687 10H6.66687Z" fill="white" fill-opacity="0.5"/>
</svg>
