<svg width="20" height="20" viewBox="0 0 20 20" fill="none" xmlns="http://www.w3.org/2000/svg">
<path d="M15.8333 2.5C17.2141 2.5 18.3333 3.61929 18.3333 5V13.3333C18.3333 14.7141 17.2141 15.8333 15.8333 15.8333H6.11111L3.33334 17.9167C2.64664 18.4317 1.66667 17.9418 1.66667 17.0833V5C1.66667 3.61929 2.78596 2.5 4.16667 2.5H15.8333ZM15.8333 4.16667H4.16667C3.70644 4.16667 3.33334 4.53977 3.33334 5V15.8333L5.11111 14.5C5.39961 14.2837 5.7505 14.1667 6.11111 14.1667H15.8333C16.2936 14.1667 16.6667 13.7936 16.6667 13.3333V5C16.6667 4.53977 16.2936 4.16667 15.8333 4.16667ZM9.16667 10C9.62692 10 10 10.3731 10 10.8333C10 11.2607 9.67832 11.6129 9.26386 11.6611L9.16667 11.6667H6.66667C6.20644 11.6667 5.83334 11.2936 5.83334 10.8333C5.83334 10.406 6.15504 10.0537 6.56949 10.0056L6.66667 10H9.16667ZM13.3333 6.66667C13.7936 6.66667 14.1667 7.03977 14.1667 7.5C14.1667 7.96023 13.7936 8.33333 13.3333 8.33333H6.66667C6.20644 8.33333 5.83334 7.96023 5.83334 7.5C5.83334 7.03977 6.20644 6.66667 6.66667 6.66667H13.3333Z" fill="#8491A5"/>
</svg>
