<svg width="20" height="20" viewBox="0 0 20 20" fill="none" xmlns="http://www.w3.org/2000/svg">
<path d="M13.3333 2.5C14.212 2.5 14.9318 3.1799 14.9954 4.04228L15 4.16667V8.33333H16.25C16.8997 8.33333 17.4337 8.82909 17.4943 9.46295L17.5 9.58333V15.8333C17.5 17.1648 16.4593 18.2531 15.1469 18.3291L15 18.3333H4.16667C3.28803 18.3333 2.5682 17.6535 2.50457 16.7911L2.5 16.6667V4.16667C2.5 3.28803 3.1799 2.5682 4.04228 2.50457L4.16667 2.5H13.3333ZM15.8333 10H15V16.6667C15.4602 16.6667 15.8333 16.2936 15.8333 15.8333V10ZM13.3333 4.16667H4.16667V16.6667H13.3333V4.16667ZM9.16667 10.8333C9.62692 10.8333 10 11.2064 10 11.6667C10 12.094 9.67831 12.4463 9.26385 12.4944L9.16667 12.5H6.66667C6.20643 12.5 5.83333 12.1269 5.83333 11.6667C5.83333 11.2393 6.15504 10.8871 6.56948 10.8389L6.66667 10.8333H9.16667ZM10.8333 6.66667C11.2936 6.66667 11.6667 7.03977 11.6667 7.5C11.6667 7.96023 11.2936 8.33333 10.8333 8.33333H6.66667C6.20643 8.33333 5.83333 7.96023 5.83333 7.5C5.83333 7.03977 6.20643 6.66667 6.66667 6.66667H10.8333Z" fill="#8491A5"/>
</svg>
