<svg width="20" height="20" viewBox="0 0 20 20" fill="none" xmlns="http://www.w3.org/2000/svg">
<path d="M13.3333 2.5C14.212 2.5 14.9318 3.1799 14.9954 4.04228L15 4.16667V8.33333H16.25C16.8997 8.33333 17.4337 8.82909 17.4943 9.46295L17.5 9.58333V15.8333C17.5 17.1648 16.4593 18.2531 15.1469 18.3291L15 18.3333H4.16667C3.28803 18.3333 2.5682 17.6535 2.50457 16.7911L2.5 16.6667V4.16667C2.5 3.28803 3.1799 2.5682 4.04228 2.50457L4.16667 2.5H13.3333ZM15.8333 10H15V16.6667C15.4602 16.6667 15.8333 16.2936 15.8333 15.8333V10ZM9.16667 10.8333H6.66667C6.20643 10.8333 5.83333 11.2064 5.83333 11.6667C5.83333 12.094 6.15504 12.4463 6.56948 12.4944L6.66667 12.5H9.16667C9.62692 12.5 10 12.1269 10 11.6667C10 11.2393 9.67831 10.8871 9.26385 10.8389L9.16667 10.8333ZM10.8333 6.66667H6.66667C6.20643 6.66667 5.83333 7.03977 5.83333 7.5C5.83333 7.96023 6.20643 8.33333 6.66667 8.33333H10.8333C11.2936 8.33333 11.6667 7.96023 11.6667 7.5C11.6667 7.03977 11.2936 6.66667 10.8333 6.66667Z" fill="white" fill-opacity="0.5"/>
</svg>
