<svg width="20" height="20" viewBox="0 0 20 20" fill="none" xmlns="http://www.w3.org/2000/svg">
<path d="M13.3333 2.5C13.7936 2.5 14.1667 2.8731 14.1667 3.33333V4.16667H15.8333C16.7538 4.16667 17.5 4.91286 17.5 5.83333V15.8333C17.5 16.7538 16.7538 17.5 15.8333 17.5H4.16667C3.24619 17.5 2.5 16.7538 2.5 15.8333V5.83333C2.5 4.91286 3.24619 4.16667 4.16667 4.16667H5.83333V3.33333C5.83333 2.8731 6.20642 2.5 6.66667 2.5C7.12691 2.5 7.5 2.8731 7.5 3.33333V4.16667H12.5V3.33333C12.5 2.8731 12.8731 2.5 13.3333 2.5ZM15.8333 5.83333H4.16667V15.8333H15.8333V5.83333ZM12.3534 7.8156C12.6788 7.49017 13.2065 7.49017 13.5319 7.8156C13.8574 8.14103 13.8574 8.66867 13.5319 8.99408L9.41308 13.113C9.08433 13.4417 8.55142 13.4417 8.22276 13.113L6.46088 11.3512C6.13544 11.0257 6.13544 10.4981 6.46088 10.1726C6.78632 9.84717 7.31396 9.84717 7.63939 10.1726L8.81792 11.3512L12.3534 7.8156Z" fill="#8491A5"/>
</svg>
