<svg width="20" height="20" viewBox="0 0 20 20" fill="none" xmlns="http://www.w3.org/2000/svg">
<g opacity="0.5">
<path d="M13.3333 2.5C13.7936 2.5 14.1667 2.8731 14.1667 3.33333V4.16667H15.8333C16.712 4.16667 17.4318 4.84656 17.4954 5.70895L17.5 5.83333V15.8333C17.5 16.712 16.8201 17.4318 15.9577 17.4954L15.8333 17.5H4.16667C3.28803 17.5 2.5682 16.8201 2.50457 15.9577L2.5 15.8333V5.83333C2.5 4.9547 3.1799 4.23486 4.04228 4.17124L4.16667 4.16667H5.83333V3.33333C5.83333 2.8731 6.20643 2.5 6.66667 2.5C7.1269 2.5 7.5 2.8731 7.5 3.33333V4.16667H12.5V3.33333C12.5 2.8731 12.8731 2.5 13.3333 2.5ZM12.3534 7.81565L8.81792 11.3512L7.63939 10.1727C7.31396 9.84725 6.78632 9.84725 6.46088 10.1727C6.13544 10.4981 6.13544 11.0258 6.46088 11.3512L8.22276 13.1131C8.55142 13.4417 9.08433 13.4417 9.41308 13.1131L13.5319 8.99417C13.8574 8.66875 13.8574 8.14109 13.5319 7.81565C13.2065 7.49022 12.6788 7.49022 12.3534 7.81565Z" fill="white"/>
</g>
</svg>
