<svg width="20" height="20" viewBox="0 0 20 20" fill="none" xmlns="http://www.w3.org/2000/svg">
<path fill-rule="evenodd" clip-rule="evenodd" d="M8.30399 2.34068C7.99658 2.1194 7.56299 2.01592 7.13656 2.17194C6.22217 2.5065 5.38337 2.99633 4.65192 3.609C4.30436 3.90013 4.17724 4.3267 4.21496 4.70326C4.27778 5.33059 4.16706 5.9363 3.86562 6.45839C3.56405 6.98074 3.09454 7.37963 2.51946 7.63887C2.17383 7.79468 1.86729 8.11894 1.7896 8.56675C1.70873 9.033 1.66667 9.51192 1.66667 10.0001C1.66667 10.4882 1.70873 10.9672 1.78961 11.4333C1.8673 11.8812 2.17384 12.2054 2.51946 12.3613C3.09454 12.6205 3.56405 13.0194 3.86562 13.5418C4.16705 14.0638 4.27777 14.6695 4.21496 15.2968C4.17725 15.6734 4.30436 16.1 4.65192 16.3911C5.38336 17.0038 6.22213 17.4936 7.13649 17.8281C7.56294 17.9842 7.99655 17.8807 8.30395 17.6593C8.81617 17.2907 9.39659 17.0833 10 17.0833C10.6034 17.0833 11.1838 17.2907 11.6961 17.6593C12.0035 17.8807 12.4371 17.9842 12.8635 17.8281C13.7778 17.4936 14.6166 17.0038 15.348 16.3912C15.6956 16.1 15.8227 15.6734 15.785 15.2968C15.7222 14.6695 15.8328 14.0638 16.1343 13.5418C16.4358 13.0194 16.9054 12.6205 17.4805 12.3613C17.8262 12.2054 18.1328 11.8812 18.2104 11.4333C18.2913 10.9672 18.3333 10.4882 18.3333 10.0001C18.3333 9.512 18.2913 9.03309 18.2104 8.56692C18.1328 8.11907 17.8262 7.79479 17.4805 7.63899C16.9054 7.37974 16.4358 6.98085 16.1343 6.4585C15.8328 5.93639 15.7222 5.33064 15.785 4.70327C15.8228 4.32669 15.6956 3.90009 15.348 3.60894C14.6166 2.9963 13.7778 2.50649 12.8634 2.17194C12.437 2.01593 12.0034 2.1194 11.696 2.34068C11.1838 2.70936 10.6034 2.91669 10 2.91669C9.39659 2.91669 8.81617 2.70936 8.30399 2.34068ZM7.5 10C7.5 8.61925 8.61926 7.5 10 7.5C11.3808 7.5 12.5 8.61925 12.5 10C12.5 11.3808 11.3808 12.5 10 12.5C8.61926 12.5 7.5 11.3808 7.5 10Z" fill="white" fill-opacity="0.5"/>
</svg>
