<svg width="20" height="20" viewBox="0 0 20 20" fill="none" xmlns="http://www.w3.org/2000/svg">
<path fill-rule="evenodd" clip-rule="evenodd" d="M11.6959 2.34068C12.0033 2.1194 12.4369 2.01593 12.8633 2.17194C13.7777 2.50649 14.6165 2.9963 15.3479 3.60894C15.6955 3.90009 15.8226 4.32669 15.7849 4.70327C15.7221 5.33064 15.8327 5.93639 16.1341 6.4585C16.4022 6.92281 16.803 7.28958 17.2927 7.54742L17.4804 7.63899C17.8261 7.79479 18.1326 8.11907 18.2103 8.56692C18.2911 9.03309 18.3332 9.512 18.3332 10.0001C18.3332 10.4882 18.2911 10.9672 18.2103 11.4333C18.1404 11.8364 17.8851 12.1393 17.5827 12.3095L17.4804 12.3613C16.9053 12.6205 16.4357 13.0194 16.1341 13.5418C15.8327 14.0638 15.7221 14.6695 15.7849 15.2968C15.8226 15.6734 15.6955 16.1 15.3479 16.3912C14.6165 17.0038 13.7777 17.4936 12.8634 17.8281C12.437 17.9842 12.0034 17.8807 11.696 17.6593C11.1837 17.2907 10.6033 17.0833 9.9999 17.0833C9.39648 17.0833 8.81606 17.2907 8.30385 17.6593C7.99644 17.8807 7.56283 17.9842 7.13638 17.8281C6.22202 17.4936 5.38325 17.0038 4.65181 16.3911C4.30426 16.1 4.17714 15.6734 4.21485 15.2968C4.27766 14.6695 4.16694 14.0638 3.86551 13.5418C3.59745 13.0775 3.19669 12.7107 2.70705 12.4528L2.51936 12.3613C2.17373 12.2054 1.86719 11.8812 1.7895 11.4333C1.70862 10.9672 1.66656 10.4882 1.66656 10.0001C1.66656 9.51192 1.70862 9.033 1.78949 8.56675C1.85941 8.16373 2.1147 7.86077 2.41702 7.69062L2.51935 7.63887C3.09443 7.37963 3.56394 6.98074 3.86551 6.45839C4.16695 5.9363 4.27767 5.33059 4.21485 4.70326C4.17713 4.32669 4.30425 3.90013 4.65181 3.609C5.38327 2.99633 6.22206 2.5065 7.13646 2.17194C7.56288 2.01592 7.99647 2.1194 8.30388 2.34068C8.81606 2.70936 9.39648 2.91669 9.9999 2.91669C10.6033 2.91669 11.1837 2.70936 11.6959 2.34068ZM12.493 3.81494C11.7716 4.28929 10.921 4.58336 9.9999 4.58336C9.07881 4.58336 8.22813 4.28929 7.50683 3.81494C6.92262 4.05067 6.37908 4.36702 5.89006 4.75047C5.93984 5.61167 5.76906 6.49471 5.30889 7.29173C4.84861 8.08898 4.16902 8.6785 3.39805 9.066C3.35536 9.37084 3.33323 9.68267 3.33323 10.0001C3.33323 10.3175 3.35536 10.6293 3.39805 10.9342C4.16902 11.3217 4.84861 11.9112 5.30889 12.7084C5.76905 13.5054 5.93984 14.3884 5.89006 15.2496C6.37907 15.6331 6.92258 15.9494 7.50676 16.1852C8.22807 15.7108 9.07881 15.4167 9.9999 15.4167C10.921 15.4167 11.7717 15.7108 12.4931 16.1852C13.0771 15.9494 13.6206 15.6331 14.1096 15.2497C14.0599 14.3885 14.2306 13.5054 14.6908 12.7084C15.1511 11.9111 15.8307 11.3216 16.6017 10.9341C16.6445 10.6293 16.6666 10.3175 16.6666 10.0001C16.6666 9.68267 16.6445 9.37092 16.6017 9.06617C15.8307 8.67867 15.1511 8.08911 14.6908 7.29184C14.2306 6.49476 14.0598 5.61167 14.1096 4.75042C13.6206 4.36699 13.0771 4.05066 12.493 3.81494ZM9.9999 6.66667C11.8408 6.66667 13.3332 8.15905 13.3332 10C13.3332 11.8409 11.8408 13.3333 9.9999 13.3333C8.15895 13.3333 6.66656 11.8409 6.66656 10C6.66656 8.15905 8.15895 6.66667 9.9999 6.66667ZM9.9999 8.33334C9.0794 8.33334 8.33323 9.0795 8.33323 10C8.33323 10.9205 9.0794 11.6667 9.9999 11.6667C10.9204 11.6667 11.6666 10.9205 11.6666 10C11.6666 9.0795 10.9204 8.33334 9.9999 8.33334Z" fill="#8491A5"/>
</svg>
