<svg width="20" height="20" viewBox="0 0 20 20" fill="none" xmlns="http://www.w3.org/2000/svg">
<path d="M10 2.5C10.4603 2.5 10.8333 2.8731 10.8333 3.33333C10.8333 3.76069 10.5117 4.11292 10.0972 4.16106L10 4.16667H5.83334C5.40598 4.16667 5.05375 4.48837 5.00562 4.90282L5.00001 5V15C5.00001 15.4274 5.32171 15.7796 5.73616 15.8277L5.83334 15.8333H9.58334C10.0436 15.8333 10.4167 16.2064 10.4167 16.6667C10.4167 17.094 10.095 17.4463 9.68053 17.4944L9.58334 17.5H5.83334C4.50195 17.5 3.41363 16.4593 3.33759 15.1469L3.33334 15V5C3.33334 3.6686 4.37411 2.58028 5.68645 2.50424L5.83334 2.5H10ZM14.7558 7.05372L17.1129 9.41075C17.4383 9.73617 17.4383 10.2638 17.1129 10.5892L14.7558 12.9462C14.4304 13.2717 13.9028 13.2717 13.5773 12.9462C13.2519 12.6208 13.2519 12.0932 13.5773 11.7677L14.5118 10.8333H10C9.53976 10.8333 9.16668 10.4602 9.16668 10C9.16668 9.53975 9.53976 9.16667 10 9.16667H14.5118L13.5773 8.23223C13.2519 7.9068 13.2519 7.37916 13.5773 7.05372C13.9028 6.72828 14.4304 6.72828 14.7558 7.05372Z" fill="#B5BDC9"/>
</svg>
