<svg width="20" height="20" viewBox="0 0 20 20" fill="none" xmlns="http://www.w3.org/2000/svg">
<path fill-rule="evenodd" clip-rule="evenodd" d="M9.99999 1.66667C5.39761 1.66667 1.66666 5.39763 1.66666 10C1.66666 14.6023 5.39761 18.3333 9.99999 18.3333C14.6023 18.3333 18.3333 14.6023 18.3333 10C18.3333 5.39763 14.6023 1.66667 9.99999 1.66667ZM7.08332 7.08334C7.08332 5.47251 8.38916 4.16667 9.99999 4.16667C11.6108 4.16667 12.9167 5.47251 12.9167 7.08334C12.9167 8.69417 11.6108 10 9.99999 10C8.38916 10 7.08332 8.69417 7.08332 7.08334ZM4.39849 13.6163C5.77243 12.4932 7.77892 11.6667 9.99999 11.6667C12.2211 11.6667 14.2276 12.4932 15.6015 13.6163C14.4141 15.4519 12.3489 16.6667 9.99999 16.6667C7.65112 16.6667 5.58597 15.4519 4.39849 13.6163Z" fill="#007AFF"/>
</svg>
