<svg width="20" height="20" viewBox="0 0 20 20" fill="none" xmlns="http://www.w3.org/2000/svg">
<path fill-rule="evenodd" clip-rule="evenodd" d="M15.8333 4.99049V5.83333C16.7538 5.83333 17.5 6.57952 17.5 7.49999V15.8333C17.5 16.7538 16.7538 17.5 15.8333 17.5H4.16667C3.24619 17.5 2.5 16.7538 2.5 15.8333V7.49999C2.5 6.62953 3.19569 5.8393 4.011 5.60636L13.1777 2.98731C14.5085 2.60706 15.8333 3.60636 15.8333 4.99049ZM12.9167 10.4167C12.2263 10.4167 11.6667 10.9763 11.6667 11.6667C11.6667 12.357 12.2263 12.9167 12.9167 12.9167C13.607 12.9167 14.1667 12.357 14.1667 11.6667C14.1667 10.9763 13.607 10.4167 12.9167 10.4167ZM14.1667 4.99049C14.1667 4.73673 13.944 4.54765 13.7019 4.57647L13.6355 4.58985L9.28342 5.83333H14.1667V4.99049Z" fill="#FDAD15"/>
</svg>
